<svg xmlns="http://www.w3.org/2000/svg" viewBox="0 0 1280 1280"><path d="M66.04341 947.410123l300.523114-84.218147 31.07624-31.127436-211.594894-211.594895-31.383419 31.383419-88.672237 295.557059z m155.278808-362.214826l211.594894 211.646091 413.564858-413.667251-211.543698-211.543697-413.616054 413.564857zM942.01453 161.288758l-85.139683-85.139682c-48.687816-48.687816-77.767395-48.687816-126.455211 0l-60.155819 60.258212 211.543697 211.543697L942.01453 287.74397c48.687816-48.739013 48.687816-77.767395 0-126.455212zM362.982773 82.139059c-48.687816-48.687816-77.767395-48.687816-126.455212 0L35.274348 283.392272 0 248.117924 211.594894 36.52303a124.663336 124.663336 0 0 1 176.320546 0L504.438542 153.097328l-35.274349 35.274348L362.982773 82.139059zM123.383425 301.055045l70.548697-70.548697 35.325545 35.274348L158.70897 336.278197l-4.198109-4.146912 39.421261 39.42126 105.771849-105.771849 35.325544 35.274349-105.823045 105.771849 10.751253 10.751252-35.274348 35.325545-169.460223-169.511419 35.325545-35.274348L123.383425 301.055045z m493.738485 493.687288l105.771849 105.823046 52.937121 52.885924 165.978864-166.030061c48.687816-48.687816 48.687816-77.767395 0-126.455211l-111.301064-111.301065 35.223152-35.325545 121.693942 121.693943a124.663336 124.663336 0 0 1 0 176.320545l-176.320546 176.320546-35.325545 35.274349-35.223152-35.274349-174.579866-174.579867 35.325544-35.223152 15.870897 15.870897z m141.097394-70.4975l-105.771849 105.771849-35.325545-35.274349 105.771849-105.823045 35.325545 35.325545z m17.611576 52.885924l35.274348 35.274349-88.160273 88.160273-35.274348-35.325545 88.160273-88.109077z"></path></svg>