<svg xmlns="http://www.w3.org/2000/svg" viewBox="0 0 1024 1024"><path d="M740.352 117.76h-430.592c-79.36 0-144.384 64-146.432 142.848v516.096c0.512 80.896 66.048 145.92 146.944 145.408h305.152l271.36-267.776h0.512v-391.168c0-80.896-66.048-145.92-146.944-145.408z m-124.416 740.864v-97.792-5.632c0.512-55.808 46.08-101.376 101.888-101.376h105.472l-207.36 204.8z m226.304-248.832h-123.904c-80.896-0.512-146.944 64.512-147.456 145.408v122.88h-259.072c-56.32 0.512-101.888-45.056-101.888-101.376V262.656c0.512-55.808 45.568-100.864 101.376-101.376h429.568c56.32-0.512 101.888 45.056 101.888 101.376v347.136h-0.512z m-474.112-291.328h-22.528c-12.288-0.512-23.552 9.728-23.552 22.016-0.512 12.288 9.728 23.552 22.016 23.552h24.064c12.288 0.512 23.552-9.728 23.552-22.016s-9.728-23.552-22.016-23.552h-1.536z m0 134.144h-23.04c-12.288 0-23.04 10.24-23.04 23.04s10.24 23.04 23.04 23.04h22.528c12.288-0.512 22.528-11.264 22.016-23.552-0.512-12.288-10.24-22.016-21.504-22.528z m338.432 0h-202.752c-12.288 0-23.04 10.24-23.04 23.04s10.24 23.04 23.04 23.04H707.072c12.288 0 23.04-10.24 23.04-23.04-1.024-12.8-11.264-23.04-23.552-23.04z m-338.432 134.144h-23.04c-12.288 0-23.04 10.24-23.04 23.552 0 12.288 10.24 23.04 23.552 23.04h22.528c12.288 0.512 23.552-9.216 24.064-22.016 0.512-12.288-9.216-23.552-22.016-24.064-1.024-0.512-1.536-0.512-2.048-0.512z m338.432-268.288h-202.752c-12.288 0-23.04 10.24-23.04 23.04 0 12.288 10.24 23.04 23.04 23.04h203.264c12.288 0 23.04-10.24 23.04-23.04-1.024-12.288-11.264-23.04-23.552-23.04z"></path></svg>