<svg xmlns="http://www.w3.org/2000/svg" viewBox="0 0 1152 1152"><path d="M594.406196 0.623858C498.581656 0.499086 404.628689 27.449738 323.402419 78.231753l47.038869 75.237237c175.803095-108.301694 404.259778-73.240892 539.512124 82.8483 135.252346 156.089192 137.498233 387.166078 5.240405 545.750701-132.257829 158.709394-359.965883 198.1372-537.765323 93.204338S123.892732 551.989277 198.755654 359.591568l126.019252 47.038869L241.677063 143.487267l-235.568661 142.863409 111.29621 41.548922c-80.477641 208.992324-15.596442 445.933471 160.081882 584.804191C453.164817 1051.57451 698.715201 1059.809431 883.377075 933.166321s265.264287-358.842939 199.0106-572.701352C1016.13399 146.606555 818.371104 0.748629 594.406196 0.623858z m0 0"></path><path d="M752.366961 294.336055c-48.660899-20.587304-101.064945-30.693798-153.843304-29.570855-120.529304 0-210.489582 46.040697-210.489582 86.84099s89.585963 86.591446 209.865724 86.591446c53.027903 1.122944 105.681491-9.108322 154.591934-29.820397 34.312173-16.469843 56.02242-37.805776 56.02242-57.020592-0.124772-19.589131-21.08639-41.548922-56.147192-57.020592z m58.39308 369.822834v-91.332765c-13.475326 11.728524-28.697453 21.460704-45.042525 28.822225-52.77836 23.207506-109.923724 34.93603-167.568174 34.312173-74.488607 4.367004-148.228585-16.469843-209.491409-59.016937v92.081394c4.117461 40.176435 92.705252 84.096016 210.863896 84.096015s206.122578-44.293895 211.238212-84.844645v-4.11746z m0 0"></path><path d="M810.760041 515.68076V445.434385c-13.475326 8.858779-28.697453 16.2203-45.042525 21.710248-52.77836 17.468015-109.923724 26.326794-167.568174 25.952479-74.488607 3.24406-148.228585-12.477154-209.491409-44.543438v69.372974c4.117461 30.319483 92.705252 63.508712 210.863896 63.508712s206.122578-33.438772 211.238212-64.007798v-3.119289 1.372487z m0 0"></path></svg>