<svg xmlns="http://www.w3.org/2000/svg" viewBox="0 0 1280 1280"><path d="M244.363636 256h418.909091c13.963636 0 23.272727-9.309091 23.272728-23.272727s-9.309091-23.272727-23.272728-23.272728h-418.909091c-13.963636 0-23.272727 9.309091-23.272727 23.272728 0 11.636364 9.309091 23.272727 23.272727 23.272727zM244.363636 395.636364h418.909091c13.963636 0 23.272727-9.309091 23.272728-23.272728s-9.309091-23.272727-23.272728-23.272727h-418.909091c-13.963636 0-23.272727 9.309091-23.272727 23.272727s9.309091 23.272727 23.272727 23.272728zM244.363636 558.545455h418.909091c13.963636 0 23.272727-9.309091 23.272728-23.272728s-9.309091-23.272727-23.272728-23.272727h-418.909091c-13.963636 0-23.272727 9.309091-23.272727 23.272727s9.309091 23.272727 23.272727 23.272728zM244.363636 698.181818H488.727273c13.963636 0 23.272727-9.309091 23.272727-23.272727s-9.309091-23.272727-23.272727-23.272727H244.363636c-13.963636 0-23.272727 9.309091-23.272727 23.272727s9.309091 23.272727 23.272727 23.272727zM698.181818 768c-13.963636 0-23.272727 9.309091-23.272727 23.272727v209.454546h46.545454v-209.454546c0-13.963636-9.309091-23.272727-23.272727-23.272727zM814.545455 651.636364c-13.963636 0-23.272727 9.309091-23.272728 23.272727v325.818182h46.545455V674.909091c0-11.636364-9.309091-23.272727-23.272727-23.272727zM930.909091 791.272727c-13.963636 0-23.272727 9.309091-23.272727 23.272728v186.181818h46.545454v-186.181818c0-13.963636-11.636364-23.272727-23.272727-23.272728z"></path><path d="M791.272727 23.272727H116.363636c-25.6 0-46.545455 20.945455-46.545454 46.545455v884.363636c0 25.6 20.945455 46.545455 46.545454 46.545455h395.636364c13.963636 0 23.272727-9.309091 23.272727-23.272728s-9.309091-23.272727-23.272727-23.272727H116.363636V69.818182h674.909091v488.727273c0 13.963636 9.309091 23.272727 23.272728 23.272727s23.272727-9.309091 23.272727-23.272727V69.818182c0-25.6-20.945455-46.545455-46.545455-46.545455z"></path></svg>