<svg xmlns="http://www.w3.org/2000/svg" viewBox="0 0 1024 1024"><path d="M947.483 338.93v-0.024c-9.911-18.589-27.07-33.543-48.832-40.185H898.577L517.403 182.803l-0.122-0.047a82.813 82.813 0 0 0-63.037 6.18 82.838 82.838 0 0 0-40.157 48.86h-0.025v0.047l-33.081 108.94H158.574a94.585 94.585 0 0 0-66.987 27.747c-17.112 17.086-27.75 40.91-27.75 66.964v305.657c0 26.1 10.638 49.9 27.772 66.986a94.555 94.555 0 0 0 66.6 27.726h457.104a94.395 94.395 0 0 0 66.937-27.75 94.604 94.604 0 0 0 27.725-66.525l0.025-0.244V693.032l62.866 19.122 0.025 0.024h0.047a82.532 82.532 0 0 0 62.941-6.18 82.64 82.64 0 0 0 40.06-48.52l0.075-0.193 0.047-0.146v-0.047l77.603-255.153v-0.071c6.64-21.764 3.781-44.35-6.18-62.938z m-538.848-1.722l31.48 9.574h-34.39l2.91-9.574z m274.224 409.92c0 37.347-30.271 67.616-67.617 67.616H158.621c-37.37 0-67.664-30.27-67.664-67.617V552.273h591.902v194.854z m0-271.413H90.957v-34.15c0-37.394 30.294-67.665 67.664-67.665h456.621c37.345 0 67.617 30.271 67.617 67.666v34.149z m170.568 174.494c-9.5 31.192-42.484 48.788-73.652 39.286l-69.773-21.206v-38.147l87.83 26.757 18.516-60.831-106.346-32.33V497.72l15.027 4.581 0.484-1.6c0.218-0.8 0.268-1.43 0.049-1.841-0.193-0.437-0.533-0.702-1.043-0.849-0.34-0.121-0.801-0.097-1.26 0.122l-7.272-2.229c4.144-1.793 6.98-3.054 8.458-3.806 1.866-0.921 3.127-1.72 3.71-2.398a5.75 5.75 0 0 0 1.38-2.375c0.533-1.794 0.315-3.539-0.63-5.212-0.946-1.647-2.423-2.812-4.532-3.467-1.332-0.386-2.69-0.484-4.023-0.24-1.308 0.24-2.4 0.752-3.296 1.527-0.895 0.799-1.454 1.525-1.647 2.156-0.121 0.437-0.097 0.848 0.144 1.26 0.243 0.437 0.583 0.728 1.02 0.849 0.413 0.122 0.75 0.122 1.064 0.047 0.34-0.144 0.655-0.413 0.899-0.8 0.484-0.654 0.968-1.09 1.501-1.357 0.993-0.437 2.085-0.484 3.27-0.145 1.164 0.363 2.013 0.944 2.547 1.792 0.508 0.849 0.63 1.698 0.412 2.472-0.193 0.654-0.728 1.236-1.576 1.769-1.647 1.043-6.251 3.127-13.694 6.204l-0.992 3.199v-55.91c0-4.46-0.728-8.726-1.333-13.04l194.246 59.063-49.488 162.717z m77.603-255.15l-8.702 28.524-494.257-150.285 8.676-28.571c9.475-31.168 42.435-48.788 73.65-39.286l381.297 115.94c31.216 9.501 48.811 42.463 39.336 73.678zM744.877 508.312l-15.124-4.581 1.092-3.514c7.487-3.077 12.019-5.162 13.691-6.205 0.848-0.558 1.383-1.114 1.576-1.769 0.244-0.777 0.097-1.623-0.387-2.471-0.533-0.824-1.382-1.407-2.546-1.794-1.211-0.34-2.301-0.29-3.271 0.146-0.533 0.265-1.017 0.702-1.505 1.358-0.265 0.387-0.58 0.653-0.92 0.8-0.291 0.097-0.678 0.097-1.043-0.05-0.459-0.118-0.8-0.412-1.043-0.824a1.61 1.61 0 0 1-0.144-1.283c0.193-0.63 0.727-1.358 1.623-2.156 0.898-0.777 2.012-1.285 3.345-1.529a9.03 9.03 0 0 1 3.998 0.244c2.084 0.655 3.61 1.794 4.581 3.49 0.921 1.647 1.14 3.395 0.606 5.186-0.315 0.921-0.752 1.698-1.382 2.4-0.606 0.655-1.867 1.454-3.708 2.375-1.501 0.777-4.289 2.013-8.482 3.805l7.296 2.23c0.46-0.217 0.895-0.267 1.236-0.121 0.509 0.144 0.872 0.437 1.043 0.848 0.193 0.434 0.193 1.043-0.05 1.841l-0.482 1.574z m33.952 7.706l-1.283-0.363c-0.824-0.243-1.43-0.243-1.867-0.049-0.437 0.169-0.702 0.509-0.848 0.993-0.144 0.508-0.097 0.945 0.146 1.382 0.242 0.413 0.75 0.702 1.552 0.97l4.435 1.333c0.799 0.24 1.43 0.29 1.84 0.071 0.462-0.218 0.728-0.533 0.849-1.017 0.144-0.484 0.122-0.945-0.12-1.358-0.22-0.412-0.704-0.727-1.406-0.945l0.413-1.333c0.702 0.218 1.257 0.218 1.694 0 0.413-0.193 0.702-0.558 0.874-1.042 0.144-0.46 0.097-0.896-0.17-1.333-0.217-0.412-0.703-0.727-1.38-0.92l3.925-12.968-4.388-1.332-12.02 11.125-0.847 2.737 8.991 2.74-0.39 1.309z m-3.392-6.108l7.271-6.64-2.496 8.12-4.775-1.48z m23.219 12.165l-1.261-0.386c-0.8-0.24-1.43-0.24-1.84-0.047-0.438 0.168-0.703 0.533-0.875 1.017-0.144 0.46-0.097 0.92 0.146 1.332 0.241 0.437 0.753 0.752 1.552 1.017l4.46 1.308c0.799 0.244 1.404 0.268 1.84 0.097 0.413-0.24 0.728-0.53 0.871-1.04 0.146-0.511 0.097-0.945-0.144-1.382-0.268-0.387-0.728-0.702-1.407-0.92l0.39-1.31c0.677 0.217 1.258 0.217 1.67-0.023 0.461-0.194 0.727-0.559 0.874-1.043 0.168-0.461 0.121-0.898-0.147-1.332-0.216-0.39-0.702-0.728-1.38-0.921l3.927-12.968-4.363-1.307-12.043 11.076-0.849 2.762 8.992 2.737-0.413 1.333z m-3.393-6.13l7.32-6.64-2.472 8.142-4.848-1.501z m23.289 12.166l-1.283-0.387c-0.802-0.268-1.455-0.268-1.867-0.05-0.437 0.193-0.727 0.533-0.898 1.017a1.59 1.59 0 0 0 0.17 1.358c0.241 0.412 0.753 0.728 1.552 0.996l4.435 1.332c0.775 0.218 1.43 0.265 1.866 0.047 0.437-0.193 0.702-0.508 0.871-1.017 0.147-0.509 0.122-0.946-0.169-1.358-0.243-0.387-0.677-0.727-1.382-0.945l0.39-1.308c0.702 0.218 1.26 0.218 1.694-0.025 0.462-0.193 0.728-0.555 0.849-1.017 0.146-0.484 0.121-0.92-0.098-1.332-0.266-0.413-0.702-0.752-1.454-0.946l3.951-12.964-4.362-1.311-12.022 11.076-0.87 2.788 9.038 2.715-0.411 1.33z m-3.418-6.107l7.272-6.641-2.447 8.12-4.825-1.48z m23.244 12.142l-1.286-0.39c-0.8-0.266-1.405-0.266-1.84-0.047-0.438 0.194-0.728 0.534-0.875 1.018-0.143 0.461-0.097 0.945 0.122 1.358 0.29 0.412 0.752 0.727 1.6 0.97l4.436 1.354c0.799 0.218 1.405 0.244 1.84 0.075 0.437-0.218 0.702-0.559 0.849-1.043 0.169-0.508 0.122-0.945-0.122-1.357-0.244-0.387-0.702-0.753-1.405-0.946l0.412-1.283c0.678 0.193 1.21 0.193 1.67-0.025 0.437-0.243 0.728-0.583 0.874-1.043 0.122-0.484 0.122-0.945-0.12-1.332-0.267-0.412-0.703-0.752-1.405-0.945l3.926-12.968-4.388-1.308-12.043 11.077-0.849 2.762 8.991 2.762-0.387 1.311z m-3.37-6.107l7.247-6.666-2.472 8.143-4.775-1.477zM461.393 700.133H624.16v72.828H461.393v-72.828z m-308.709-71.468l-18.372-12.458 19.099-12.505-0.727 24.963z m26.925-20.286c-0.388-0.387-0.582-0.895-0.582-1.504 0-0.484 0.147-0.921 0.413-1.21 0.265-0.316 0.824-0.582 1.697-0.825l8.53-2.181v21.667h3.998c0.97 0 1.65 0.218 2.084 0.556 0.413 0.387 0.584 0.874 0.584 1.454 0 0.583-0.171 1.043-0.584 1.43-0.434 0.365-1.114 0.558-2.084 0.558h-11.946c-0.971 0-1.649-0.193-2.036-0.558-0.437-0.387-0.63-0.871-0.63-1.43 0-0.606 0.193-1.067 0.63-1.454 0.387-0.338 1.065-0.556 2.036-0.556h4.022V607.82l-3.56 0.921c-0.584 0.147-0.995 0.244-1.286 0.244a1.63 1.63 0 0 1-1.286-0.606z m32.063 11.876c0.92 0 1.794-0.147 2.593-0.56 0.824-0.337 1.722-0.943 2.765-1.791-0.412 1.963-1.432 3.611-3.152 4.99-1.673 1.336-3.538 2.038-5.527 2.038-0.581 0-1.09-0.146-1.574-0.387-0.412-0.218-0.752-0.315-1.067-0.315-0.559 0-1.043 0.216-1.382 0.606-0.363 0.338-0.582 0.846-0.582 1.405 0 0.68 0.291 1.285 0.874 1.698 0.872 0.63 2.132 0.968 3.73 0.968 2.886 0 5.552-0.921 7.974-2.835 3.101-2.424 4.703-5.696 4.703-9.768 0-2.376-0.34-4.653-1.043-6.835-0.68-2.229-1.745-3.927-3.199-5.065-1.454-1.162-3.151-1.745-5.114-1.745-2.713 0-4.822 1.092-6.349 3.32-1.067 1.6-1.647 3.393-1.647 5.381 0 2.497 0.799 4.653 2.422 6.326 1.601 1.72 3.443 2.569 5.575 2.569z m-2.81-12.36c0.776-0.848 1.721-1.31 2.835-1.31 1.115 0 2.06 0.412 2.859 1.188 0.848 0.75 1.431 2.06 1.89 3.877-1.453 3.077-3.101 4.628-4.896 4.628-0.992 0-1.888-0.434-2.687-1.355-0.801-0.923-1.19-2.135-1.19-3.589 0-1.454 0.388-2.567 1.19-3.439z m17.74 13.716c0 1.333 0.315 2.544 0.97 3.683 0.628 1.092 1.648 1.989 3.028 2.644 1.358 0.63 2.884 0.968 4.581 0.968s3.25-0.338 4.678-0.968c1.358-0.655 2.4-1.505 3.052-2.644a7.17 7.17 0 0 0 0.996-3.683c0-1.21-0.293-2.253-0.801-3.296-0.484-0.994-1.236-1.866-2.278-2.643 0.898-0.824 1.576-1.694 2.013-2.666 0.46-0.895 0.677-1.89 0.677-2.933 0-2.036-0.773-3.78-2.3-5.235-1.6-1.454-3.564-2.181-5.987-2.181-2.4 0-4.412 0.727-5.962 2.181-1.527 1.455-2.304 3.2-2.304 5.235 0 1.02 0.22 2.037 0.68 2.933 0.437 0.921 1.114 1.817 2.01 2.666-0.993 0.777-1.792 1.648-2.3 2.643a7.245 7.245 0 0 0-0.753 3.296z m5.477-13.984c0.774-0.655 1.816-1.043 3.101-1.043 1.308 0 2.35 0.387 3.128 1.043 0.774 0.702 1.138 1.551 1.138 2.521 0 0.993-0.365 1.817-1.138 2.52-0.777 0.705-1.819 1.042-3.128 1.042-1.285 0-2.328-0.337-3.101-1.042-0.777-0.702-1.164-1.527-1.164-2.52 0-0.97 0.388-1.818 1.164-2.521z m-0.17 11.342c0.897-0.87 2.01-1.258 3.321-1.258 1.355 0 2.447 0.386 3.344 1.258 0.895 0.849 1.357 1.82 1.357 2.837 0 0.874-0.387 1.576-1.164 2.229-0.749 0.607-1.938 0.898-3.537 0.898-1.55 0-2.739-0.29-3.538-0.898-0.728-0.653-1.14-1.333-1.14-2.179 0-1.068 0.46-2.038 1.358-2.887z m28.913 5.357h-1.525c-0.972 0-1.649 0.218-2.038 0.556-0.434 0.387-0.628 0.848-0.628 1.454 0 0.559 0.193 1.043 0.628 1.43 0.39 0.365 1.067 0.558 2.038 0.558h5.305c0.946 0 1.626-0.193 2.038-0.558 0.412-0.387 0.606-0.847 0.606-1.43 0-0.581-0.194-1.043-0.606-1.454-0.387-0.338-0.996-0.556-1.841-0.556v-1.551c0.824 0 1.43-0.197 1.84-0.583 0.413-0.363 0.607-0.824 0.607-1.405 0-0.584-0.194-1.092-0.606-1.43-0.387-0.39-0.996-0.559-1.841-0.559v-15.51h-5.236l-9.525 16.166v3.32h10.785v1.552z m-5.742-5.526l5.742-9.765v9.765h-5.742z m55.327 9.041c1.092 0.678 2.45 1.065 4.047 1.065 2.74 0 4.896-1.186 6.398-3.562 1.48-2.35 2.23-4.824 2.23-7.393v-4.362c0-2.107-0.484-4.12-1.504-6.034-0.993-1.866-2.035-3.151-3.174-3.853-1.115-0.702-2.422-1.043-4.047-1.043-2.738 0-4.847 1.189-6.326 3.538-1.502 2.375-2.254 4.822-2.254 7.39v4.363c0 2.11 0.509 4.097 1.454 6.011 0.997 1.892 2.037 3.2 3.176 3.88z m-0.653-14.252c0-2.156 0.533-3.998 1.72-5.5 0.752-0.945 1.745-1.504 2.934-1.504 1.236 0 2.204 0.484 2.859 1.358 1.236 1.648 1.84 3.49 1.84 5.646v4.362c0 2.206-0.58 4.023-1.744 5.477-0.752 1.017-1.72 1.504-2.908 1.504-1.236 0-2.229-0.437-2.908-1.332-1.186-1.6-1.792-3.492-1.792-5.649v-4.362z m20.382-5.21c-0.365-0.387-0.558-0.895-0.558-1.504 0-0.484 0.147-0.921 0.387-1.21 0.268-0.316 0.848-0.582 1.698-0.825l8.58-2.181v21.667h3.975c0.943 0 1.647 0.218 2.06 0.556 0.386 0.387 0.58 0.874 0.58 1.454 0 0.583-0.193 1.043-0.58 1.43-0.413 0.365-1.117 0.558-2.06 0.558h-11.95c-0.97 0-1.647-0.193-2.084-0.558a1.955 1.955 0 0 1-0.58-1.43c0-0.606 0.193-1.067 0.58-1.454 0.437-0.338 1.114-0.556 2.085-0.556h3.975V607.82l-3.539 0.921c-0.583 0.147-0.995 0.244-1.26 0.244-0.534 0-0.971-0.194-1.309-0.606z m40.157 19.945h-18.105v-4.194c7.175-5.912 11.489-9.719 12.968-11.389 0.752-0.873 1.114-1.673 1.114-2.47 0-0.946-0.437-1.82-1.26-2.547-0.847-0.727-1.963-1.139-3.368-1.139-1.405 0-2.62 0.462-3.565 1.26-0.484 0.438-0.87 1.09-1.161 1.99-0.171 0.483-0.437 0.895-0.728 1.138-0.34 0.218-0.726 0.362-1.189 0.362-0.555 0-0.992-0.218-1.405-0.605-0.387-0.413-0.606-0.849-0.606-1.358 0-0.8 0.363-1.745 1.065-2.909 0.727-1.114 1.794-2.06 3.176-2.761 1.358-0.702 2.86-1.043 4.435-1.043 2.496 0 4.578 0.727 6.154 2.253 1.6 1.529 2.4 3.37 2.4 5.527 0 1.09-0.218 2.109-0.678 3.03-0.437 0.943-1.528 2.253-3.273 3.876-1.38 1.308-4.047 3.66-8.02 6.981h8.7c0.46-0.365 0.897-0.558 1.358-0.558 0.606 0 1.09 0.218 1.452 0.63 0.34 0.362 0.534 1.067 0.534 2.035v1.891z m7.636-1.092c-0.995-0.652-1.528-1.405-1.528-2.228 0-0.533 0.193-0.993 0.605-1.405 0.366-0.39 0.874-0.559 1.408-0.559 0.459 0 0.945 0.193 1.454 0.655 0.533 0.387 1.09 0.702 1.647 0.87 0.85 0.269 1.891 0.366 3.199 0.366 2.375 0 4.023-0.387 4.897-1.139 0.87-0.777 1.332-1.938 1.332-3.538 0-1.552-0.462-2.787-1.311-3.683-0.824-0.874-1.889-1.311-3.223-1.311-1.43 0-3.053 0.461-4.895 1.382-0.412 0.218-0.777 0.315-1.067 0.315-0.58 0-1.067-0.193-1.43-0.63-0.387-0.387-0.58-0.945-0.58-1.623v-11.416h12.14c0.97 0 1.624 0.169 2.06 0.559 0.365 0.338 0.605 0.846 0.605 1.43 0 0.555-0.24 1.067-0.605 1.404-0.436 0.387-1.09 0.56-2.06 0.56h-8.167v4.725c1.454-0.437 2.786-0.702 3.998-0.702 2.424 0 4.484 0.848 6.084 2.497 1.623 1.647 2.398 3.853 2.398 6.495 0 2.665-0.775 4.774-2.398 6.326-1.647 1.551-4.144 2.325-7.536 2.325-2.957-0.001-5.283-0.583-7.027-1.675z m55.377-0.336c1.332 0.992 3.052 1.454 5.114 1.454 2.52 0 4.458-0.728 5.912-2.135 1.454-1.43 2.206-3.296 2.206-5.62 0-2.498-0.8-4.532-2.35-6.183-1.552-1.67-3.393-2.493-5.456-2.493-0.968 0-1.913 0.193-2.786 0.555-0.871 0.387-1.767 0.946-2.738 1.745 0.34-1.551 0.825-2.834 1.502-3.9 0.995-1.43 2.206-2.545 3.538-3.25 1.358-0.702 2.643-1.09 3.927-1.09 0.315 0 0.655 0.122 0.995 0.266 0.556 0.316 1.018 0.487 1.308 0.487 0.559 0 0.993-0.194 1.405-0.584 0.39-0.412 0.606-0.895 0.606-1.454 0-0.702-0.313-1.236-0.87-1.647-0.875-0.63-2.157-0.944-3.783-0.944-2.035 0-3.926 0.556-5.767 1.599-1.867 1.091-3.418 2.643-4.798 4.58-1.332 1.99-2.037 4.436-2.037 7.441 0 2.447 0.34 4.678 1.043 6.713 0.655 2.01 1.696 3.489 3.029 4.46z m2.763-9.84c0.92-0.777 1.744-1.164 2.593-1.164 0.994 0 1.89 0.437 2.69 1.333 0.8 0.873 1.189 2.037 1.189 3.345 0 1.163-0.34 2.109-1.043 2.786-0.702 0.678-1.697 1.043-3.005 1.043-1.285 0-2.328-0.29-3.006-0.874-0.702-0.556-1.285-1.623-1.673-3.15 0.606-1.428 1.358-2.52 2.255-3.32z m21.011 9.84c1.308 0.992 3.055 1.454 5.137 1.454 2.471 0 4.46-0.728 5.89-2.135 1.453-1.43 2.206-3.296 2.206-5.62 0-2.498-0.8-4.532-2.351-6.183-1.576-1.67-3.392-2.493-5.477-2.493-0.97 0-1.89 0.193-2.74 0.555-0.87 0.387-1.79 0.946-2.736 1.745 0.29-1.551 0.799-2.834 1.476-3.9 0.996-1.43 2.206-2.545 3.539-3.25 1.358-0.702 2.643-1.09 3.9-1.09 0.34 0 0.706 0.122 1.02 0.266 0.582 0.316 1.018 0.487 1.333 0.487 0.556 0 1.017-0.194 1.38-0.584 0.412-0.412 0.608-0.895 0.608-1.454 0-0.702-0.315-1.236-0.873-1.647-0.896-0.63-2.157-0.944-3.78-0.944-2.038 0-3.952 0.556-5.77 1.599-1.842 1.091-3.44 2.643-4.797 4.58-1.333 1.99-2.038 4.436-2.038 7.441 0 2.447 0.34 4.678 1.043 6.713 0.656 2.01 1.673 3.489 3.03 4.46z m2.763-9.84c0.899-0.777 1.745-1.164 2.593-1.164 0.97 0 1.891 0.437 2.69 1.333 0.8 0.873 1.19 2.037 1.19 3.345 0 1.163-0.34 2.109-1.043 2.786-0.702 0.678-1.698 1.043-2.981 1.043-1.31 0-2.304-0.29-3.03-0.874-0.728-0.556-1.26-1.623-1.673-3.15 0.581-1.428 1.358-2.52 2.254-3.32z m32.962 10.71h-18.057v-4.19c7.125-5.89 11.44-9.695 12.967-11.342 0.752-0.899 1.09-1.698 1.09-2.497 0-0.946-0.413-1.794-1.261-2.546-0.824-0.749-1.985-1.114-3.368-1.114-1.43 0-2.617 0.386-3.538 1.236-0.509 0.412-0.896 1.067-1.21 1.938-0.147 0.533-0.413 0.92-0.728 1.189-0.316 0.218-0.702 0.34-1.164 0.34a1.81 1.81 0 0 1-1.38-0.608c-0.412-0.387-0.607-0.824-0.607-1.332 0-0.775 0.34-1.745 1.067-2.907 0.728-1.163 1.77-2.084 3.127-2.79 1.383-0.701 2.884-1.039 4.484-1.039 2.495 0 4.555 0.75 6.155 2.278 1.576 1.501 2.424 3.343 2.424 5.5 0 1.091-0.268 2.084-0.705 3.03-0.46 0.945-1.574 2.253-3.295 3.9-1.405 1.285-4.048 3.636-7.996 6.981h8.698c0.437-0.387 0.898-0.583 1.335-0.583 0.606 0 1.09 0.218 1.452 0.63 0.315 0.39 0.512 1.043 0.512 2.038v1.889z m23.774 0h-18.057v-4.19c7.125-5.89 11.44-9.695 12.942-11.342 0.752-0.899 1.114-1.698 1.114-2.497 0-0.946-0.388-1.794-1.236-2.546-0.87-0.749-1.988-1.114-3.392-1.114-1.43 0-2.593 0.386-3.539 1.236-0.508 0.412-0.895 1.067-1.186 1.938-0.17 0.533-0.437 0.92-0.752 1.189-0.315 0.218-0.702 0.34-1.163 0.34a1.865 1.865 0 0 1-1.405-0.608c-0.387-0.387-0.582-0.824-0.582-1.332 0-0.775 0.363-1.745 1.04-2.907 0.752-1.163 1.77-2.084 3.152-2.79 1.358-0.701 2.883-1.039 4.484-1.039 2.495 0 4.531 0.75 6.154 2.278 1.602 1.501 2.424 3.343 2.424 5.5a6.774 6.774 0 0 1-0.705 3.03c-0.484 0.945-1.574 2.253-3.295 3.9-1.38 1.285-4.023 3.636-8.022 6.981h8.702c0.484-0.387 0.92-0.583 1.38-0.583 0.583 0 1.067 0.218 1.382 0.63 0.412 0.39 0.558 1.043 0.558 2.038v1.889z m39.77-2.883h-1.501c-0.97 0-1.626 0.193-2.085 0.583-0.39 0.338-0.583 0.824-0.583 1.405s0.194 1.068 0.583 1.454c0.46 0.34 1.115 0.56 2.085 0.56h5.306c0.945 0 1.647-0.219 2.037-0.56 0.413-0.386 0.606-0.848 0.606-1.43 0-0.558-0.193-1.067-0.606-1.429-0.39-0.39-1.043-0.583-1.844-0.583v-1.551c0.801 0 1.454-0.194 1.844-0.582 0.413-0.365 0.606-0.848 0.606-1.43s-0.193-1.066-0.606-1.429c-0.39-0.365-1.043-0.533-1.844-0.533v-15.51h-5.234l-9.525 16.14v3.344h10.761v1.551z m-5.72-5.525l5.72-9.743v9.743h-5.72z m29.52 5.525h-1.551c-0.946 0-1.623 0.193-2.036 0.583-0.412 0.338-0.607 0.824-0.607 1.405s0.196 1.068 0.607 1.454c0.413 0.34 1.09 0.56 2.036 0.56h5.331c0.946 0 1.648-0.219 2.038-0.56 0.412-0.386 0.605-0.848 0.605-1.43 0-0.558-0.193-1.067-0.605-1.429-0.39-0.39-1.043-0.583-1.844-0.583v-1.551c0.8 0 1.454-0.194 1.844-0.582 0.412-0.365 0.605-0.848 0.605-1.43s-0.193-1.066-0.605-1.429c-0.39-0.365-1.043-0.533-1.844-0.533v-15.51h-5.235l-9.525 16.14v3.344h10.786v1.551z m-5.746-5.525l5.745-9.743v9.743h-5.745z m29.52 5.525h-1.55c-0.946 0-1.648 0.193-2.036 0.583-0.412 0.338-0.606 0.824-0.606 1.405s0.194 1.068 0.606 1.454c0.387 0.34 1.09 0.56 2.035 0.56h5.332c0.92 0 1.625-0.219 2.037-0.56 0.412-0.386 0.606-0.848 0.606-1.43 0-0.558-0.194-1.067-0.583-1.429-0.413-0.39-0.993-0.583-1.842-0.583v-1.551c0.776 0 1.407-0.194 1.82-0.582 0.411-0.365 0.605-0.848 0.605-1.43s-0.194-1.066-0.583-1.429c-0.413-0.365-0.993-0.533-1.842-0.533v-15.51h-5.235l-9.524 16.14v3.344h10.76v1.551z m-5.742-5.525l5.743-9.743v9.743h-5.743z m29.517 5.525h-1.551c-0.97 0-1.623 0.193-2.036 0.583-0.39 0.338-0.605 0.824-0.605 1.405s0.216 1.068 0.605 1.454c0.413 0.34 1.065 0.56 2.036 0.56h5.356c0.92 0 1.576-0.219 2.037-0.56 0.387-0.386 0.581-0.848 0.581-1.43 0-0.558-0.193-1.067-0.58-1.429-0.413-0.39-1.02-0.583-1.845-0.583v-1.551c0.801 0 1.383-0.194 1.844-0.582 0.387-0.365 0.581-0.848 0.581-1.43s-0.193-1.066-0.58-1.429c-0.413-0.365-1.02-0.533-1.845-0.533v-15.51h-5.259l-9.5 16.14v3.344h10.761v1.551z m-5.72-5.525l5.72-9.743v9.743h-5.72z"></path></svg>