<svg xmlns="http://www.w3.org/2000/svg" viewBox="0 0 1152 1152"><path d="M230.513114 174.699701l463.34643 0 0 57.918159-463.34643 0 0-57.918159Z"></path><path d="M228.969016 291.103617l463.34643 0 0 57.918159-463.34643 0 0-57.918159Z"></path><path d="M228.969016 406.934143l463.34643 0 0 57.918159-463.34643 0 0-57.918159Z"></path><path d="M228.969016 522.771619l231.673794 0 0 57.918159-231.673794 0 0-57.918159Z"></path><path d="M521.26343 695.017907l405.427112 0 0 57.918159-405.427112 0 0-57.918159Z"></path><path d="M695.017907 521.26343l57.918159 0 0 405.427112-57.918159 0 0-405.427112Z"></path><path d="M809.695862 0l-695.017907 0c-31.987041 0-57.918159 25.931118-57.918159 57.918159l0 810.854225c0 31.987041 25.931118 57.918159 57.918159 57.918159l405.427112 0 0-57.918159-405.427112 0 0-810.854225 695.017907 0 0 463.345271 57.918159 0 0-463.345271C867.614021 25.931118 841.682903 0 809.695862 0z"></path></svg>