<svg xmlns="http://www.w3.org/2000/svg" viewBox="0 0 1152 1152"><path d="M966.605467 642.42828h-41.954001v83.932085h-83.930365v42.007328h83.930365v83.889081h41.954001v-83.889081h83.949288v-42.007328h-83.949288z" fill="#898888" p-id="7434"></path><path d="M945.579441 474.333602c-150.333595 0-272.806802 122.437082-272.806802 273.023546 0 150.500454 122.473207 273.014946 272.806802 273.014946 150.531418 0 272.918615-122.514492 272.918615-273.014946 0.00172-150.586464-122.387197-273.023547-272.918615-273.023546z m0 494.513288c-122.012193 0-221.278157-99.369176-221.278157-221.491462 0-122.120565 99.267685-221.489742 221.278157-221.489741 122.067239 0 221.38997 99.369176 221.38997 221.489741 0 122.122286-99.322731 221.491462-221.38997 221.491462zM561.246797 658.434757h-118.714566c-19.360871 0-35.059433 14.134898-35.059433 31.524418 0 17.277707 15.698562 31.424646 35.059433 31.424647h118.714566c19.360871 0 35.074914-14.14694 35.074914-31.424647 0-17.39124-15.714043-31.524418-35.074914-31.524418zM799.20403 238.767449c-19.34711 0-35.016428 14.133178-35.016427 31.495174 0 17.320712 15.669318 31.46077 35.016427 31.460771h118.699084c19.360871 0 35.114479-14.140059 35.114479-31.460771 0-17.355116-15.753608-31.495175-35.114479-31.495174h-118.699084zM595.188098 383.118182c27.469902 0.153098 54.798748 0 82.254889-0.768931 15.124014-0.454133 24.253125-11.616523 23.652775-27.201551-0.743127-19.570736-15.868861-34.69647-34.655185-34.69647-24.239363 0-48.480447 0.146217-72.718091 0-2.502894 0-6.90833 1.216183-6.751792-2.293029 0.139336-8.709382-3.228819-17.73356 4.403717-25.83571 26.434341-27.666005 52.144477-55.944403 78.143607-84.064541 3.369875-3.66919 6.768994-7.491479 9.394022-11.769621 9.842995-15.440531 2.795328-33.781323-14.675042-38.059465-12.345888-3.061959-22.185442 2.293029-30.700441 10.694495-24.239363 23.688899-48.480447 47.389839-72.427376 71.538032-4.111282 4.123324-5.871049 3.670911-9.54712-0.461014-20.270858-22.772031-40.973486-45.244747-61.397442-67.861961-7.787353-8.563164-16.747885-14.678482-28.056492-16.971511-12.345888-2.446127-22.479597 3.66231-26.141906 16.202581-4.417478 14.979517 2.193257 26.750858 11.447943 37.299135 22.044386 25.218158 43.921912 50.899051 66.693943 75.35688 8.373942 9.017298 12.036252 18.194574 10.875116 30.420048-0.447252 5.353268-1.62043 6.877367-6.767274 6.877367-25.706696-0.301035-51.416831 0.146217-77.123527-0.301035-8.217404-0.154818-13.937075 3.046477-18.801805 9.469711-3.66231 4.887093-6.163483 10.393459-8.079788 16.20086-6.891128 21.865485 3.49545 41.095621 25.708416 41.095621 26.910837 0 51.862364-4.250619 77.851172-4.565416 4.109562-0.146217 7.059708 0 6.918651 5.809122-0.309636 18.801806-0.309636 37.76531-0.153097 56.560234 0 4.43124-1.469052 5.654303-5.578615 5.654304-14.258753-0.307916-28.364407-0.154818-42.611118-0.154818h-40.092743c-16.45373 0.154818-28.937234 12.686488-28.782417 29.049047 0.139336 17.418763 12.622841 30.413168 29.231389 30.413168 26.867832 0 53.890482 0 80.772075-0.146217 4.711633 0 6.473119 1.223063 6.318301 6.414632-0.153098 9.469711 0 18.942862 0.743128 28.276677 1.467332 18.805246 13.80978 29.649398 32.181535 29.190104 16.438248-0.461014 29.074851-13.89235 29.369005-31.787609 0.139336-7.954213 0.433491-15.899825-0.447253-23.690619-0.741407-7.178402 1.469052-8.716262 7.940452-8.570045 26.728495 0.316517 53.303893 0 80.046149 0.1703 8.805713 0 15.726085-3.215057 20.857447-10.556878 7.211086-10.240361 8.819475-21.39587 3.970226-33.174092-4.837207-11.461705-14.384327-15.278832-25.567359-15.892944-2.920903-0.146217-5.871049-0.146217-8.807433-0.146217-23.793831 0-47.446606-0.161699-71.236997 0.146217-5.145124 0-6.614176-1.678917-6.474839-7.032185 0.294155-17.272546 0.603791-34.69647 0.154818-51.967296-0.154818-7.192164 2.053921-8.86936 8.666376-8.86936z"></path><path d="M701.207575 926.402631H357.707361c-41.044015 0-74.440012-33.409759-74.440012-74.452053V129.156191c0-41.044015 33.395998-74.440012 74.440012-74.440013h645.089432c41.044015 0 74.441732 33.395998 74.441732 74.440013V479.317026c0 14.231229 11.530513 25.766903 25.763462 25.766903 14.23295 0 25.765182-11.533953 25.765183-25.766903V129.156191c0-69.463468-56.503468-125.968657-125.968657-125.968657H357.707361c-69.463468 0-125.968657 56.506909-125.968657 125.968657v722.794387c0 69.47895 56.506909 125.982418 125.968657 125.982418h343.500214c14.231229 0 25.766903-11.549435 25.766903-25.777224-0.00344-14.23295-11.535673-25.753141-25.766903-25.753141z"></path></svg>