<svg xmlns="http://www.w3.org/2000/svg" viewBox="0 0 1152 1152"><path d="M838.452154 726.286397H1053.141938v42.974081H838.452154z"></path><path d="M945.73942 473.480381c-151.037157 0-274.084911 123.003029-274.084912 274.293056 0 151.205737 123.047754 274.294776 274.084912 274.294776 151.23326 0 274.195004-123.089039 274.195004-274.294776 0.00172-151.290027-122.961744-274.293056-274.195004-274.293056z m0 496.82008c-122.5833 0-222.315439-99.830191-222.315439-222.525303 0-122.693393 99.733859-222.514982 222.315439-222.514983 122.638346 0 222.428972 99.82159 222.428972 222.514983 0 122.695113-99.790626 222.525303-222.428972 222.525303zM559.605724 658.434757H440.337254c-19.453762 0-35.226292 14.201986-35.226293 31.672356 0 17.358556 15.77253 31.572584 35.226293 31.572583h119.26847c19.452042 0 35.236613-14.215748 35.236614-31.572583 0.00344-17.47209-15.784572-31.672355-35.236614-31.672356zM798.679369 236.796097c-19.441721 0-35.183287 14.215748-35.183287 31.656874 0 17.3878 15.741567 31.600107 35.183287 31.600107h119.251269c19.453762 0 35.283059-14.212307 35.283058-31.600107 0-17.444566-15.829297-31.656873-35.283058-31.656874h-119.251269zM593.707005 381.82287c27.597197 0.16858 55.056778 0 82.640214-0.758609 15.196263-0.462734 24.368379-11.683611 23.762867-27.330566-0.744847-19.661906-15.94111-34.858169-34.816884-34.858169-24.351177 0-48.704073 0.141057-73.062131 0-2.513215 0-6.937574 1.205861-6.782755-2.305071 0.141057-8.764428-3.244301-17.821291 4.424359-25.954404 26.558195-27.808782 52.387025-56.207593 78.51173-84.465349 3.385357-3.686392 6.796517-7.527603 9.435306-11.826387 9.88944-15.51278 2.80909-33.939581-14.747289-38.238365-12.400935-3.074001-22.288655 2.30507-30.841498 10.74438-24.352897 23.798992-48.705793 47.613465-72.766256 71.873471-4.128484 4.143966-5.898572 3.679512-9.593566-0.462734-20.365469-22.880404-41.164429-45.458052-61.684715-68.181918-7.821758-8.602729-16.823573-14.74557-28.187227-17.04892-12.400935-2.459889-22.582809 3.679512-26.262321 16.278269-4.439841 15.048325 2.203578 26.874713 11.50299 37.469436 22.147598 25.343733 44.128336 51.131278 67.00702 75.709521 8.415227 9.058583 12.093019 18.287465 10.930162 30.561105-0.452413 5.379071-1.630751 6.913491-6.798237 6.913491-25.83055-0.311357-51.655939 0.141057-77.48477-0.311357-8.258689-0.141057-14.005883 3.061959-18.889536 9.523037-3.679512 4.914617-6.194447 10.448506-8.117632 16.27655-6.923812 21.968697 3.512652 41.277962 25.82883 41.277962 27.038132 0 52.106632-4.267821 78.217575-4.579177 4.126764-0.141057 7.090672 0 6.953056 5.841805-0.311357 18.875774-0.311357 37.93389-0.156538 56.825146 0 4.4364-1.472493 5.673225-5.604418 5.673225-14.32584-0.309636-28.495143-0.153098-42.807221-0.153098h-40.281966c-16.531139 0.153098-29.07313 12.736374-28.920032 29.184944 0.141057 17.499613 12.683048 30.547343 29.367285 30.547343 26.993406 0 54.145071 0 81.150519-0.141056 4.732275 0 6.502363 1.235105 6.347545 6.445596-0.154818 9.507555 0 19.030592 0.744847 28.412573 1.474213 18.891256 13.875148 29.790455 32.331193 29.32772 16.519098-0.464454 29.212467-13.959438 29.508341-31.935546 0.141057-7.992058 0.435211-15.984115-0.448972-23.807593-0.744847-7.204205 1.472493-8.748946 7.976575-8.60789 26.85407 0.309636 53.553322 0 80.419434 0.16858 8.850438 0 15.803494-3.230539 20.957218-10.603324 7.24721-10.295408 8.860759-21.502522 3.987428-33.32891-4.85957-11.516751-14.451415-15.351081-25.687773-15.968633-2.936384-0.154818-5.898572-0.154818-8.850438-0.154818-23.903924 0-47.668512-0.154818-71.570716 0.154818-5.169206 0-6.643419-1.684078-6.502363-7.063148 0.294155-17.358556 0.605511-34.861609 0.153098-52.218446-0.154818-7.219687 2.064242-8.905485 8.707662-8.905484z"></path><path d="M700.22362 927.646337H355.115017c-41.236677 0-74.790933-33.554256-74.790934-74.790933V126.6791c0-41.234957 33.552536-74.789213 74.790934-74.789213h648.110106c41.240118 0 74.792654 33.554256 74.792654 74.789213v351.800188c0 14.300037 11.585559 25.887317 25.883876 25.887317 14.300037 0 25.885597-11.587279 25.885596-25.887317V126.6791c0-69.788587-56.770099-126.556966-126.558686-126.556966H355.115017c-69.788587 0-126.556966 56.768379-126.556966 126.556966v726.176304c0 69.788587 56.768379 126.556966 126.556966 126.556966h345.108603c14.298317 0 25.885597-11.585559 25.885596-25.885597-0.00172-14.293157-11.588999-25.880436-25.885596-25.880436z"></path></svg>