<svg xmlns="http://www.w3.org/2000/svg" viewBox="0 0 1024 1024"><path d="M579.2 896H240C195.2 896 160 860.8 160 816v-608C160 163.2 195.2 128 240 128h480C764.8 128 800 163.2 800 208v262.4c0 9.6 6.4 16 16 16s16-6.4 16-16V208C832 147.2 780.8 96 720 96h-480C179.2 96 128 147.2 128 208v608C128 876.8 179.2 928 240 928h339.2c9.6 0 16-6.4 16-16s-6.4-16-16-16z"></path><path d="M704 336h-96c-9.6 0-16 6.4-16 16s6.4 16 16 16h96c9.6 0 16-6.4 16-16s-6.4-16-16-16zM480 368c9.6 0 16-6.4 16-16s-6.4-16-16-16h-60.8l70.4-70.4c6.4-6.4 6.4-16 0-22.4-6.4-6.4-16-6.4-22.4 0L384 326.4 300.8 243.2c-6.4-6.4-16-6.4-22.4 0-6.4 6.4-6.4 16 0 22.4l70.4 70.4H288c-9.6 0-16 6.4-16 16s6.4 16 16 16h80v32H288c-9.6 0-16 6.4-16 16s6.4 16 16 16h80V512c0 9.6 6.4 16 16 16s16-6.4 16-16v-80H480c9.6 0 16-6.4 16-16s-6.4-16-16-16h-80v-32H480zM448 624H256c-9.6 0-16 6.4-16 16s6.4 16 16 16h192c9.6 0 16-6.4 16-16s-6.4-16-16-16zM448 752H256c-9.6 0-16 6.4-16 16s6.4 16 16 16h192c9.6 0 16-6.4 16-16s-6.4-16-16-16zM832 704h-64v-64c0-9.6-6.4-16-16-16s-16 6.4-16 16v64h-64c-9.6 0-16 6.4-16 16s6.4 16 16 16h64v64c0 9.6 6.4 16 16 16s16-6.4 16-16v-64h64c9.6 0 16-6.4 16-16s-6.4-16-16-16z"></path><path d="M752 512c-115.2 0-208 92.8-208 208s92.8 208 208 208 208-92.8 208-208-92.8-208-208-208z m0 384c-96 0-176-80-176-176s80-176 176-176 176 80 176 176-80 176-176 176z"></path></svg>